<svg height="511pt" viewBox="0 -87 511.99995 511" width="511pt" xmlns="http://www.w3.org/2000/svg"><path d="m452.066406 120.503906c7.082032 0 14.28125-1.265625 21.28125-3.929687 30.917969-11.773438 46.496094-46.503907 34.722656-77.421875-11.773437-30.917969-46.503906-46.496094-77.421874-34.722656-30.917969 11.769531-46.492188 46.503906-34.71875 77.417968 9.105468 23.921875 31.945312 38.65625 56.136718 38.65625zm-7.183594-78.691406c2.332032-.890625 4.734376-1.3125 7.09375-1.3125 8.0625 0 15.679688 4.914062 18.714844 12.882812 3.921875 10.308594-1.269531 21.886719-11.574218 25.808594-10.304688 3.925782-21.882813-1.265625-25.808594-11.574218-3.921875-10.304688 1.269531-21.882813 11.574218-25.804688zm-55.941406 57.582031c-7.519531-25.28125-30.292968-42.523437-56.664062-42.898437-8-.101563-15.839844 1.359375-23.253906 4.355468l-135.542969 54.265626c-15.015625 5.859374-26.816407 17.230468-33.230469 32.023437-6.429688 14.828125-6.652344 31.257813-.621094 46.253906l7.730469 19.222657-147.359375 58.246093.078125.199219h-.078125v67h511.988281v-40h-63.417969zm-212.203125 79.074219c-2.007812-5-1.9375-10.476562.207031-15.417969 2.144532-4.941406 6.089844-8.738281 11.113282-10.6875l135.890625-54.402343c2.503906-1.011719 5.105469-1.511719 7.757812-1.46875 8.792969.125 16.390625 5.875 18.914063 14.355468l56.1875 187.214844h-366.804688l290.554688-114.851562-11.449219-38.484376-134.550781 53.1875zm0 0"/></svg>