<svg height="512pt" viewBox="-13 0 512 512" width="512pt" xmlns="http://www.w3.org/2000/svg"><path d="m425.851562 120.421875c33.199219 0 60.210938-27.007813 60.210938-60.210937 0-33.199219-27.011719-60.210938-60.210938-60.210938-33.199218 0-60.210937 27.011719-60.210937 60.210938 0 33.203124 27.011719 60.210937 60.210937 60.210937zm0-80.28125c11.066407 0 20.070313 9.003906 20.070313 20.070313 0 11.066406-9.003906 20.070312-20.070313 20.070312-11.066406 0-20.070312-9.003906-20.070312-20.070312 0-11.066407 9.003906-20.070313 20.070312-20.070313zm-24.085937 123.335937-156.390625-137.40625-89.398438 97.878907 29.640626 27.070312 62.84375-68.804687 44.292968 38.914062-95 105.683594c-22.058594 24.542969-20.152344 62.574219 4.25 84.785156l89.378906 81.347656-81.316406 92.5625 30.15625 26.492188 107.347656-122.195312-73.925781-67.285157 87.980469-97.875v80.429688h123.433594v-40.144531h-83.292969zm-172.742187 118.433594c-8.136719-7.402344-8.769532-20.082031-1.417969-28.261718l95.304687-106.019532 30.15625 26.492188-109.113281 121.378906zm-85.039063 3.601563c2.644531 14.253906 8.359375 28.007812 17.09375 40.164062l-55.925781 60.554688-105.152344-94.316407 26.804688-29.878906 76.09375 68.253906zm0 0"/></svg>