<svg height="512pt" viewBox="0 -70 512 512" width="512pt" xmlns="http://www.w3.org/2000/svg"><path d="m381.679688 184.265625-57.03125 60.171875-135.441407-121.753906 64.792969-73.09375v-28.589844h-137.460938c-11.011718-12.839844-27.335937-21-45.539062-21-33.085938 0-60 26.914062-60 60s26.914062 60 60 60c32.75 0 59.4375-26.378906 59.976562-59h59.457032l-70.648438 79.699219c-10.691406 12.0625-16.011718 27.566406-14.976562 43.652343 1.035156 16.085938 8.296875 30.78125 20.449218 41.371094l105.679688 92.136719c8.921875 7.78125 19.476562 12.472656 30.359375 14.140625h-261.296875v40h512v-56.230469zm-310.679688-104.265625c-11.027344 0-20-8.972656-20-20s8.972656-20 20-20 20 8.972656 20 20-8.972656 20-20 20zm186.222656 207.710938-105.679687-92.136719c-4.050781-3.53125-6.472657-8.429688-6.816407-13.792969-.34375-5.359375 1.429688-10.527344 4.992188-14.550781l12.957031-14.613281 134.445313 120.859374-12.238282 12.914063c-7.402343 7.808594-19.550781 8.390625-27.660156 1.320313zm22.21875 44.289062c12.722656-1.949219 24.917969-8.011719 34.46875-18.089844l68.410156-72.175781 89.449219 90.265625zm0 0"/></svg>